<svg width="9" height="6" viewBox="0 0 9 6" fill="none" xmlns="http://www.w3.org/2000/svg">
<path d="M8.93379 1.51072C8.93379 1.4393 8.89807 1.35894 8.8445 1.30537L8.39807 0.858939C8.3445 0.805367 8.26414 0.769653 8.19271 0.769653C8.12129 0.769653 8.04093 0.805367 7.98736 0.858939L4.47843 4.36787L0.9695 0.858939C0.915928 0.805367 0.835571 0.769653 0.764143 0.769653C0.683786 0.769653 0.612357 0.805367 0.558786 0.858939L0.112357 1.30537C0.0587856 1.35894 0.0230713 1.4393 0.0230713 1.51072C0.0230713 1.58215 0.0587856 1.66251 0.112357 1.71608L4.27307 5.8768C4.32664 5.93037 4.407 5.96608 4.47843 5.96608C4.54986 5.96608 4.63021 5.93037 4.68379 5.8768L8.8445 1.71608C8.89807 1.66251 8.93379 1.58215 8.93379 1.51072Z" fill="black"/>
</svg>
