<svg width="35" height="35" viewBox="0 0 35 35" fill="none" xmlns="http://www.w3.org/2000/svg">
<path d="M23.9286 15.1125C23.9286 20.0746 19.8907 24.1125 14.9286 24.1125C9.96657 24.1125 5.92862 20.0746 5.92862 15.1125C5.92862 10.1505 9.96657 6.11252 14.9286 6.11252C19.8907 6.11252 23.9286 10.1505 23.9286 15.1125ZM34.2143 31.8268C34.2143 31.1438 33.9331 30.4808 33.471 30.0188L26.5804 23.1282C28.2076 20.7777 29.0715 17.9652 29.0715 15.1125C29.0715 7.29779 22.7434 0.969666 14.9286 0.969666C7.11389 0.969666 0.785767 7.29779 0.785767 15.1125C0.785767 22.9273 7.11389 29.2554 14.9286 29.2554C17.7813 29.2554 20.5938 28.3915 22.9443 26.7643L29.8349 33.6348C30.2969 34.117 30.9599 34.3982 31.6429 34.3982C33.0492 34.3982 34.2143 33.2331 34.2143 31.8268Z" fill="white"/>
</svg>
