<svg width="9" height="7" viewBox="0 0 9 7" fill="none" xmlns="http://www.w3.org/2000/svg">
<path d="M8.93391 5.3485C8.93391 5.41993 8.89819 5.50028 8.84462 5.55385L8.39819 6.00028C8.34462 6.05385 8.26427 6.08957 8.19284 6.08957C8.12141 6.08957 8.04105 6.05385 7.98748 6.00028L4.47855 2.49136L0.969622 6.00028C0.916051 6.05385 0.835693 6.08957 0.764265 6.08957C0.683908 6.08957 0.612479 6.05385 0.558908 6.00028L0.112479 5.55385C0.0589077 5.50028 0.0231934 5.41993 0.0231934 5.3485C0.0231934 5.27707 0.0589077 5.19671 0.112479 5.14314L4.27319 0.982426C4.32677 0.928855 4.40712 0.89314 4.47855 0.89314C4.54998 0.89314 4.63034 0.928855 4.68391 0.982426L8.84462 5.14314C8.89819 5.19671 8.93391 5.27707 8.93391 5.3485Z" fill="white"/>
</svg>
