<svg width="15" height="18" viewBox="0 0 15 18" fill="none" xmlns="http://www.w3.org/2000/svg">
<path fill-rule="evenodd" clip-rule="evenodd" d="M0.779865 8.9307C0.779865 7.94664 0.863062 7.32213 2.91814 5.80087C4.61952 4.54138 10.0731 0.237427 10.0731 0.237427V7.42209H14.2203V17.7627H2.07521C1.36279 17.7627 0.779663 17.1844 0.779663 16.4778L0.779865 8.93076V8.9307Z" fill="#3E9CDC"/>
<path fill-rule="evenodd" clip-rule="evenodd" d="M10.073 7.422V11.585L2.45215 16.7335L12.0874 13.6246V7.422H10.073Z" fill="black" fill-opacity="0.2"/>
<path fill-rule="evenodd" clip-rule="evenodd" d="M6.59049 7.20685C7.03618 6.68023 7.68705 6.49436 8.04444 6.79173C8.40183 7.08915 8.33039 7.75719 7.88469 8.2838C7.43934 8.81035 6.7882 8.99602 6.43081 8.69859C6.07343 8.40123 6.14507 7.73339 6.59049 7.20685Z" fill="#231F20"/>
</svg>
