<svg width="37" height="29" viewBox="0 0 37 29" fill="none" xmlns="http://www.w3.org/2000/svg">
<path d="M33.7952 25.2911C33.7952 25.6326 33.4938 25.934 33.1523 25.934H3.58086C3.23935 25.934 2.93801 25.6326 2.93801 25.2911V9.86252C3.35988 10.3447 3.82193 10.7866 4.32417 11.1884C7.19693 13.3982 10.0898 15.6482 12.8822 17.9786C14.3889 19.2442 16.2572 20.7911 18.3465 20.7911H18.3666H18.3867C20.476 20.7911 22.3443 19.2442 23.851 17.9786C26.6434 15.6482 29.5362 13.3982 32.409 11.1884C32.9112 10.7866 33.3733 10.3447 33.7952 9.86252V25.2911ZM33.7952 4.17725C33.7952 5.88484 32.1478 8.11475 30.842 9.13931C28.1501 11.2487 25.4581 13.3781 22.7862 15.5076C21.7215 16.3715 19.7929 18.2197 18.3867 18.2197H18.3666H18.3465C16.9402 18.2197 15.0117 16.3715 13.9469 15.5076C11.2751 13.3781 8.5831 11.2487 5.89113 9.13931C4.08309 7.71297 2.93801 5.72413 2.93801 3.43395C2.93801 3.09243 3.23935 2.79109 3.58086 2.79109H33.1523C33.9157 2.79109 33.7952 3.67502 33.7952 4.17725ZM36.3666 3.43395C36.3666 1.66609 34.9202 0.219666 33.1523 0.219666H3.58086C1.81301 0.219666 0.366577 1.66609 0.366577 3.43395V25.2911C0.366577 27.059 1.81301 28.5054 3.58086 28.5054H33.1523C34.9202 28.5054 36.3666 27.059 36.3666 25.2911V3.43395Z" fill="white"/>
</svg>
