<svg width="31" height="31" viewBox="0 0 31 31" fill="none" xmlns="http://www.w3.org/2000/svg">
<path d="M25.7857 23.1482C25.7857 24.5545 24.6205 25.7197 23.2143 25.7197C21.808 25.7197 20.6428 24.5545 20.6428 23.1482C20.6428 21.742 21.808 20.5768 23.2143 20.5768C24.6205 20.5768 25.7857 21.742 25.7857 23.1482ZM10.3571 7.71966C10.3571 9.12591 9.19195 10.2911 7.7857 10.2911C6.37945 10.2911 5.21427 9.12591 5.21427 7.71966C5.21427 6.31341 6.37945 5.14823 7.7857 5.14823C9.19195 5.14823 10.3571 6.31341 10.3571 7.71966ZM30.9286 23.1482C30.9286 18.8893 27.4732 15.4339 23.2143 15.4339C18.9553 15.4339 15.5 18.8893 15.5 23.1482C15.5 27.4072 18.9553 30.8625 23.2143 30.8625C27.4732 30.8625 30.9286 27.4072 30.9286 23.1482ZM29 1.29109C29 0.58796 28.4174 0.00537109 27.7143 0.00537109H24.5C24.0982 0.00537109 23.7165 0.206264 23.4754 0.527694L2.26114 28.8134C2.10043 29.0344 1.99998 29.2956 1.99998 29.5768C1.99998 30.2799 2.58257 30.8625 3.2857 30.8625H6.49998C6.90177 30.8625 7.28346 30.6616 7.52454 30.3402L28.7388 2.05448C28.8995 1.8335 29 1.57234 29 1.29109ZM15.5 7.71966C15.5 3.46073 12.0446 0.00537109 7.7857 0.00537109C3.52677 0.00537109 0.0714111 3.46073 0.0714111 7.71966C0.0714111 11.9786 3.52677 15.4339 7.7857 15.4339C12.0446 15.4339 15.5 11.9786 15.5 7.71966Z" fill="white"/>
</svg>
