<svg width="21" height="20" viewBox="0 0 21 20" fill="none" xmlns="http://www.w3.org/2000/svg">
<path d="M16.9119 13.4506C16.972 13.8381 16.8451 14.0022 16.7168 14.0022C16.5886 14.0022 16.4029 13.8446 16.1958 13.532C15.9888 13.2194 15.918 12.8719 16.0182 12.6936C16.0559 12.6319 16.1168 12.5866 16.1882 12.5671C16.2596 12.5476 16.336 12.5555 16.4016 12.589C16.7422 12.713 16.8758 13.2181 16.9119 13.4506ZM15.0242 14.3006C15.4344 14.6351 15.5586 15.033 15.3422 15.3133C15.2763 15.3917 15.1922 15.454 15.0969 15.4953C15.0015 15.5365 14.8975 15.5556 14.7931 15.551C14.5643 15.5513 14.3426 15.4741 14.1666 15.3327C13.7952 15.0188 13.6856 14.5085 13.9288 14.2192C13.9825 14.1598 14.0495 14.1131 14.1248 14.0826C14.2 14.0522 14.2815 14.0388 14.363 14.0435C14.6078 14.0514 14.8419 14.1424 15.0242 14.3006V14.3006ZM14.3402 17.5299C16.1023 17.5299 18.014 18.1138 20.1314 19.9274C20.3425 20.1082 20.6244 19.8834 20.44 19.6574C18.36 17.1191 16.4323 16.6347 14.5179 16.2265C12.1721 15.7253 10.9644 14.4478 10.1188 13.0463C9.95176 12.7673 9.87561 12.8164 9.86092 13.1755C9.84688 13.7078 9.8885 14.2401 9.98516 14.7643V14.7643C9.89031 14.7643 9.79412 14.7643 9.69927 14.7643C8.49708 14.7643 7.32188 14.4196 6.32229 13.7738C5.3227 13.128 4.54361 12.21 4.08355 11.1361C3.62349 10.0621 3.50311 8.88038 3.73765 7.74027C3.97219 6.60017 4.5511 5.55292 5.40118 4.73095C6.25127 3.90898 7.33434 3.34921 8.51343 3.12243C9.69253 2.89565 10.9147 3.01204 12.0254 3.45689C13.1361 3.90174 14.0854 4.65506 14.7533 5.62159C15.4212 6.58812 15.7777 7.72446 15.7777 8.8869C15.7783 9.1152 15.7654 9.34335 15.7389 9.57022C15.0986 9.49226 14.4515 9.48057 13.8086 9.53535C13.5774 9.55472 13.6108 9.66452 13.7845 9.68906C15.7884 10.0391 17.1751 11.2391 17.4903 13.4286C17.4915 13.4397 17.4962 13.4502 17.5038 13.4585C17.5115 13.4669 17.5216 13.4727 17.5329 13.4751C17.5441 13.4776 17.5559 13.4765 17.5665 13.4721C17.5771 13.4677 17.586 13.4602 17.5919 13.4506C18.6343 11.7657 19.0707 9.79455 18.833 7.84467C18.5953 5.89479 17.6969 4.07579 16.2779 2.6714C14.8589 1.26702 12.9991 0.356214 10.9886 0.0810568C8.97808 -0.194101 6.92993 0.181861 5.1636 1.1503C3.39726 2.11874 2.01206 3.6252 1.22405 5.4347C0.43605 7.24421 0.289553 9.25501 0.807413 11.1535C1.32527 13.0519 2.47837 14.7313 4.08685 15.9296C5.69533 17.1279 7.66874 17.7778 9.69927 17.7779C11.0419 17.7818 12.3791 17.5286 14.3402 17.5286V17.5299Z" fill="#3E9CDC"/>
</svg>
